<svg width="84" height="32" viewBox="0 0 84 32" fill="none" xmlns="http://www.w3.org/2000/svg">
<path fill-rule="evenodd" clip-rule="evenodd" d="M35.3128 9.44974C35.3092 9.16698 35.3604 8.88628 35.4634 8.624C35.5663 8.36171 35.7189 8.12306 35.9124 7.92183C36.1059 7.7206 36.3364 7.56083 36.5905 7.45179C36.8446 7.34275 37.1173 7.2866 37.3927 7.28662H47.4211C47.8059 7.28952 48.1824 7.402 48.5087 7.61152C48.835 7.82105 49.0983 8.11941 49.2692 8.47343C49.4421 8.83088 49.5168 9.22992 49.4854 9.62768C49.454 10.0254 49.3176 10.4069 49.091 10.7311L41.4783 21.5221H47.4211C47.9657 21.5431 48.4812 21.7801 48.8593 22.1832C49.2374 22.5862 49.4487 23.1241 49.4487 23.6837C49.4487 24.2433 49.2374 24.7812 48.8593 25.1843C48.4812 25.5873 47.9657 25.8243 47.4211 25.8453H37.3838C36.999 25.8424 36.6225 25.7299 36.2962 25.5204C35.9699 25.3108 35.7066 25.0125 35.5356 24.6585C35.3628 24.301 35.2881 23.902 35.3195 23.5042C35.3509 23.1065 35.4873 22.725 35.7139 22.4008L43.3176 11.6067H37.3749C37.1015 11.6043 36.8312 11.5466 36.5796 11.4369C36.3279 11.3271 36.0998 11.1675 35.9083 10.9672C35.7168 10.7668 35.5656 10.5297 35.4634 10.2693C35.3612 10.0089 35.31 9.73045 35.3128 9.44974Z" fill="#6758FF"/>
<path fill-rule="evenodd" clip-rule="evenodd" d="M69.5485 7.82357C69.7362 7.62182 69.9616 7.46106 70.2113 7.35097C70.461 7.24087 70.7298 7.18371 71.0015 7.18289H77.4375C78.7121 7.25737 79.9333 7.73358 80.9347 8.54664C82.2421 9.63276 83.1365 11.3626 83.1365 13.7576C83.1365 16.1526 82.2451 17.8977 80.9555 19.0051C79.926 19.8901 78.6194 20.3626 77.277 20.3353H73.0577V23.8439C73.0577 24.1211 73.0045 24.3956 72.9012 24.6518C72.7978 24.9079 72.6464 25.1407 72.4554 25.3367C72.2645 25.5328 72.0378 25.6883 71.7884 25.7944C71.5389 25.9005 71.2715 25.9551 71.0015 25.9551C70.7315 25.9551 70.4641 25.9005 70.2146 25.7944C69.9652 25.6883 69.7385 25.5328 69.5476 25.3367C69.3566 25.1407 69.2052 24.9079 69.1018 24.6518C68.9985 24.3956 68.9453 24.1211 68.9453 23.8439V9.37346C68.9444 8.79633 69.1604 8.24108 69.5485 7.82357ZM73.0577 15.9542H77.4375C77.7847 15.9405 78.1178 15.8097 78.3853 15.582C78.6527 15.3532 79.0212 14.8834 79.0212 13.7515C79.0212 12.6196 78.6646 12.226 78.4091 12.0003C78.0735 11.7456 77.6752 11.5923 77.2592 11.5579H73.0577V15.9542Z" fill="#6758FF"/>
<path fill-rule="evenodd" clip-rule="evenodd" d="M54.0887 7.22868C53.5302 7.23672 52.9976 7.47183 52.6077 7.88247C52.2178 8.29311 52.0024 8.84575 52.0088 9.41921L51.881 23.609C51.8746 24.1827 52.0899 24.7357 52.4798 25.1468C52.8696 25.5579 53.4022 25.7937 53.9609 25.8026H63.9774C64.5298 25.7814 65.0528 25.5412 65.4363 25.1324C65.8199 24.7236 66.0341 24.1781 66.0341 23.6105C66.0341 23.0429 65.8199 22.4973 65.4363 22.0886C65.0528 21.6798 64.5298 21.4396 63.9774 21.4184H56.0498L56.0855 18.7306H63.496C64.0486 18.7008 64.5689 18.4544 64.9498 18.0423C65.3306 17.6302 65.543 17.0837 65.543 16.5156C65.543 15.9475 65.3306 15.401 64.9498 14.9889C64.5689 14.5768 64.0486 14.3304 63.496 14.3007H56.1419L56.1776 11.6128H64.1052C64.6576 11.5917 65.1805 11.3514 65.5641 10.9426C65.9476 10.5339 66.1619 9.98835 66.1619 9.42074C66.1619 8.85312 65.9476 8.3076 65.5641 7.89882C65.1805 7.49004 64.6576 7.24985 64.1052 7.22868H54.0887Z" fill="#6758FF"/>
<path fill-rule="evenodd" clip-rule="evenodd" d="M27.3311 13.2603C27.863 10.9843 27.6758 8.83954 26.6388 7.15849C25.2541 4.90082 22.6245 3.87569 19.5075 4.03739C17.1542 1.51429 14.2958 0.339716 11.5888 1.16041C9.37518 1.83161 7.63397 3.72315 6.53754 6.32862C3.896 7.33236 1.93193 9.13546 1.18909 11.567C0.571045 13.602 0.891952 15.7803 1.96461 17.8305C1.10589 20.494 1.17126 23.0415 2.36872 24.994C3.87817 27.4561 6.8733 28.4538 10.3914 28.0449C12.7358 30.5375 15.5734 31.6877 18.2595 30.8731C20.4732 30.205 22.2174 28.3104 23.3109 25.7049C25.9524 24.7011 27.9135 22.8981 28.6593 20.4696C29.3546 18.1051 28.8108 15.5729 27.3311 13.2603ZM18.4675 22.4374H11.2858C10.9196 22.4344 10.5623 22.3209 10.2585 22.111C9.95469 21.901 9.71776 21.6039 9.57724 21.2567C9.4291 20.9051 9.38173 20.5174 9.44068 20.1391C9.49962 19.7608 9.66245 19.4077 9.91003 19.1211L14.2274 14.1359H11.2858C10.7759 14.1359 10.2869 13.9279 9.92638 13.5577C9.56584 13.1876 9.3633 12.6855 9.3633 12.1619C9.3633 11.6384 9.56584 11.1363 9.92638 10.7662C10.2869 10.396 10.7759 10.188 11.2858 10.188H18.4675C18.8333 10.1911 19.1902 10.3043 19.4939 10.5137C19.7976 10.723 20.0348 11.0192 20.1761 11.3657C20.3228 11.7175 20.3694 12.1049 20.3105 12.4829C20.2516 12.8609 20.0896 13.214 19.8433 13.5013L15.5259 18.4865H18.4675C18.9774 18.4865 19.4664 18.6945 19.8269 19.0646C20.1875 19.4348 20.39 19.9369 20.39 20.4604C20.39 20.9839 20.1875 21.486 19.8269 21.8562C19.4664 22.2264 18.9774 22.4343 18.4675 22.4343V22.4374Z" fill="#6758FF"/>
</svg>